<svg xmlns="http://www.w3.org/2000/svg" width="512" height="512" viewBox="0 0 512 512" version="1.1"><path d="M 328.762 24.707 C 330.006 24.946, 331.806 24.937, 332.762 24.687 C 333.718 24.437, 332.700 24.241, 330.500 24.252 C 328.300 24.263, 327.518 24.468, 328.762 24.707 M 492.345 146.829 C 493.255 147.835, 494 149.134, 494 149.717 C 494 150.299, 495.674 153.189, 497.721 156.138 C 501.010 160.877, 501.487 162.336, 501.828 168.700 C 502.161 174.910, 501.784 177.025, 499.084 184.094 C 497.363 188.601, 496.091 192.425, 496.258 192.591 C 496.425 192.758, 498.021 191.752, 499.806 190.355 C 504.655 186.560, 506 182.295, 506 170.716 C 506 161.871, 505.709 160.179, 503.555 156.503 C 502.210 154.208, 499.097 150.681, 496.636 148.665 C 491.882 144.769, 489.596 143.791, 492.345 146.829 M 282.250 195.716 C 283.762 195.945, 286.238 195.945, 287.750 195.716 C 289.262 195.487, 288.025 195.300, 285 195.300 C 281.975 195.300, 280.738 195.487, 282.250 195.716 M 302.750 195.706 C 303.988 195.944, 306.012 195.944, 307.250 195.706 C 308.488 195.467, 307.475 195.272, 305 195.272 C 302.525 195.272, 301.512 195.467, 302.750 195.706 M 325.500 196 C 325.840 196.550, 328.116 197, 330.559 197 C 333.002 197, 335 196.550, 335 196 C 335 195.450, 332.723 195, 329.941 195 C 326.823 195, 325.119 195.384, 325.500 196 M 344.762 195.707 C 346.006 195.946, 347.806 195.937, 348.762 195.687 C 349.718 195.437, 348.700 195.241, 346.500 195.252 C 344.300 195.263, 343.518 195.468, 344.762 195.707 M 353.750 195.706 C 354.988 195.944, 357.012 195.944, 358.250 195.706 C 359.488 195.467, 358.475 195.272, 356 195.272 C 353.525 195.272, 352.512 195.467, 353.750 195.706 M 362.762 195.707 C 364.006 195.946, 365.806 195.937, 366.762 195.687 C 367.718 195.437, 366.700 195.241, 364.500 195.252 C 362.300 195.263, 361.518 195.468, 362.762 195.707 M 259.750 377.747 C 265.938 377.922, 276.063 377.922, 282.250 377.747 C 288.438 377.571, 283.375 377.428, 271 377.428 C 258.625 377.428, 253.563 377.571, 259.750 377.747 M 306.292 377.742 C 310.027 377.935, 315.877 377.934, 319.292 377.739 C 322.706 377.545, 319.650 377.387, 312.500 377.389 C 305.350 377.390, 302.556 377.550, 306.292 377.742" stroke="none" fill="#c99f1e" fill-rule="evenodd"/><path d="M 325.688 20.115 C 324.692 20.694, 320.867 21.613, 317.188 22.155 C 306.496 23.734, 299.687 24.854, 297 25.476 C 293.555 26.274, 273.444 29.895, 268.250 30.652 C 265.913 30.993, 264 31.661, 264 32.136 C 264 32.611, 261.543 33, 258.540 33 C 255.537 33, 248.675 34.089, 243.290 35.419 C 237.906 36.750, 228.636 38.395, 222.692 39.074 C 216.747 39.754, 212.414 40.638, 213.062 41.038 C 214.414 41.874, 207.406 43.121, 201.655 43.067 C 199.540 43.048, 196.976 43.478, 195.958 44.022 C 194.940 44.567, 191.270 45.457, 187.803 45.999 C 184.336 46.541, 180.600 47.206, 179.500 47.477 C 178.400 47.747, 173.225 48.822, 168 49.865 C 162.775 50.908, 156.475 52.254, 154 52.856 C 151.525 53.458, 147.884 53.962, 145.910 53.976 C 143.935 53.989, 138.760 54.914, 134.410 56.031 C 130.059 57.149, 123.671 58.467, 120.214 58.961 C 113.789 59.879, 113.361 60.138, 104.799 68.250 C 102.622 70.313, 100.418 72, 99.899 72 C 98.902 72, 88 82.390, 88 83.340 C 88 84.376, 83.512 88.645, 81.735 89.299 C 80.764 89.656, 79.538 91.085, 79.010 92.474 C 78.482 93.863, 77.645 95, 77.151 95 C 75.718 95, 68 102.416, 68 103.793 C 68 104.481, 66.868 105.558, 65.485 106.189 C 62.766 107.427, 54.500 114.706, 54.500 115.861 C 54.500 116.626, 49.233 121.709, 43.474 126.500 C 41.491 128.150, 36.635 132.658, 32.684 136.519 C 28.733 140.379, 24.262 144.082, 22.750 144.747 C 21.238 145.413, 20 146.574, 20 147.329 C 20 148.084, 18.574 149.781, 16.832 151.100 C 15.089 152.420, 13.177 154.105, 12.582 154.845 C 11.987 155.585, 10.435 157.345, 9.134 158.756 C 7.833 160.167, 6.072 163.368, 5.220 165.868 C 3.933 169.646, 3.542 170.083, 2.906 168.457 C 1.785 165.591, 1.793 171.404, 2.917 176.243 C 3.425 178.432, 3.415 179.757, 2.893 179.434 C 2.402 179.130, 2 179.809, 2 180.941 C 2 182.073, 2.506 182.887, 3.125 182.750 C 3.744 182.612, 4.906 184.412, 5.708 186.750 C 6.663 189.533, 7.759 191, 8.883 191 C 9.828 191, 11.028 191.420, 11.550 191.933 C 12.073 192.446, 14.300 193.009, 16.500 193.183 L 20.500 193.500 20.728 254 C 21.450 445.572, 21.292 440.463, 26.697 447.755 C 30.106 452.355, 36.080 458, 37.539 458 C 38.217 458, 40.060 458.672, 41.636 459.494 C 43.211 460.315, 45.400 460.990, 46.500 460.993 C 47.600 460.995, 52.325 461.859, 57 462.912 C 72.086 466.310, 76.415 467.239, 81 468.063 C 92.019 470.044, 122.782 476.930, 125.500 478.023 C 127.150 478.687, 131.200 479.576, 134.500 479.999 C 137.800 480.422, 145.900 481.993, 152.500 483.490 C 159.100 484.987, 166.750 486.528, 169.500 486.914 C 172.250 487.300, 176.075 488.130, 178 488.758 C 184.659 490.930, 201.503 492.177, 218 491.719 C 272.065 490.217, 306.753 488.796, 308.500 488.012 C 309.600 487.518, 324.450 486.879, 341.500 486.592 C 359.444 486.290, 373.974 485.612, 376 484.982 C 377.945 484.377, 386.385 483.930, 395 483.976 C 412.359 484.068, 435.319 482.710, 441.719 481.213 C 451.156 479.006, 460.634 471.114, 466.696 460.416 C 472.056 450.958, 473.059 447.912, 474.080 438 C 475.114 427.961, 475.189 226.725, 474.163 216.445 C 473.607 210.876, 472.748 208.283, 470.089 204.139 C 465.419 196.860, 461.728 194.323, 453.984 193.067 C 445.741 191.730, 275.199 191.594, 271.706 192.922 C 270.373 193.429, 268.093 195.871, 266.641 198.350 L 264 202.856 264 250.515 L 264 298.173 267.117 302.514 C 268.832 304.901, 271.419 307.313, 272.867 307.873 C 274.484 308.499, 295.768 309.050, 328 309.302 C 356.875 309.527, 381.233 310.029, 382.130 310.417 C 383.529 311.022, 383.862 314.133, 384.485 332.396 C 385.393 359.029, 384.663 363.593, 378.510 369.750 L 374.263 374 347.382 374.159 C 332.597 374.246, 297.579 374.296, 269.564 374.271 L 218.629 374.225 212.901 371.362 C 209.635 369.730, 206.640 367.425, 205.933 366 C 205.104 364.328, 204.434 354.394, 203.908 336 C 202.925 301.571, 202.728 194.637, 203.640 189.970 C 204.105 187.587, 206.019 184.855, 209.749 181.250 C 212.736 178.362, 215.354 176, 215.566 176 C 215.778 176, 219.724 172.287, 224.333 167.750 C 236.823 155.455, 256.068 137.619, 257.896 136.645 C 258.778 136.174, 261.548 133.699, 264.052 131.145 C 266.555 128.590, 272.123 123.350, 276.426 119.500 C 287.102 109.947, 288.224 108.871, 290.510 106 C 291.604 104.625, 298.350 98.355, 305.500 92.068 C 312.650 85.780, 319.531 79.592, 320.790 78.318 C 324.333 74.733, 328.491 75.258, 334.115 80 C 336.724 82.200, 339.252 84, 339.732 84 C 340.212 84, 342.382 85.734, 344.553 87.853 C 346.724 89.972, 350.750 93.254, 353.500 95.146 C 356.250 97.038, 360.136 100.141, 362.137 102.043 C 364.137 103.944, 367.287 106.712, 369.137 108.193 C 370.986 109.675, 374.830 112.825, 377.678 115.193 C 390.910 126.198, 405.637 138.112, 411 142.149 C 412.925 143.599, 416.740 146.858, 419.478 149.392 C 422.216 151.926, 424.746 154, 425.101 154 C 425.973 154, 437.105 162.942, 441.750 167.374 C 447.234 172.607, 459.921 182.913, 464.250 185.652 C 466.313 186.957, 468 188.425, 468 188.915 C 468 190.687, 474.717 192.184, 485.067 192.719 L 495.634 193.266 498.922 184.554 C 501.777 176.990, 502.160 174.896, 501.826 168.671 C 501.487 162.340, 501.006 160.872, 497.721 156.138 C 495.674 153.189, 494 150.244, 494 149.594 C 494 147.708, 487.291 141.039, 476.500 132.197 C 471 127.691, 463.897 121.641, 460.715 118.752 C 453.175 111.907, 448.705 108.011, 445.280 105.300 C 439.809 100.971, 432.658 94.802, 431.093 93.063 C 428.388 90.056, 411.214 76, 410.245 76 C 409.742 76, 408.171 74.763, 406.754 73.250 C 405.337 71.737, 402.525 69.150, 400.504 67.500 C 398.484 65.850, 395.857 63.560, 394.666 62.411 C 393.475 61.262, 390.569 58.935, 388.209 57.240 C 381.248 52.240, 376.111 47.865, 370.025 41.750 C 366.877 38.587, 363.855 36, 363.310 36 C 362.436 36, 359.379 33.399, 349.909 24.596 C 344.861 19.904, 330.590 17.263, 325.688 20.115 M 328.762 24.707 C 330.006 24.946, 331.806 24.937, 332.762 24.687 C 333.718 24.437, 332.700 24.241, 330.500 24.252 C 328.300 24.263, 327.518 24.468, 328.762 24.707 M 282.250 195.716 C 283.762 195.945, 286.238 195.945, 287.750 195.716 C 289.262 195.487, 288.025 195.300, 285 195.300 C 281.975 195.300, 280.738 195.487, 282.250 195.716 M 302.750 195.706 C 303.988 195.944, 306.012 195.944, 307.250 195.706 C 308.488 195.467, 307.475 195.272, 305 195.272 C 302.525 195.272, 301.512 195.467, 302.750 195.706 M 325.500 196 C 325.840 196.550, 328.116 197, 330.559 197 C 333.002 197, 335 196.550, 335 196 C 335 195.450, 332.723 195, 329.941 195 C 326.823 195, 325.119 195.384, 325.500 196 M 344.762 195.707 C 346.006 195.946, 347.806 195.937, 348.762 195.687 C 349.718 195.437, 348.700 195.241, 346.500 195.252 C 344.300 195.263, 343.518 195.468, 344.762 195.707 M 353.750 195.706 C 354.988 195.944, 357.012 195.944, 358.250 195.706 C 359.488 195.467, 358.475 195.272, 356 195.272 C 353.525 195.272, 352.512 195.467, 353.750 195.706 M 362.762 195.707 C 364.006 195.946, 365.806 195.937, 366.762 195.687 C 367.718 195.437, 366.700 195.241, 364.500 195.252 C 362.300 195.263, 361.518 195.468, 362.762 195.707 M 259.750 377.747 C 265.938 377.922, 276.063 377.922, 282.250 377.747 C 288.438 377.571, 283.375 377.428, 271 377.428 C 258.625 377.428, 253.563 377.571, 259.750 377.747 M 306.292 377.742 C 310.027 377.935, 315.877 377.934, 319.292 377.739 C 322.706 377.545, 319.650 377.387, 312.500 377.389 C 305.350 377.390, 302.556 377.550, 306.292 377.742" stroke="none" fill="#e4ab1a" fill-rule="evenodd"/></svg>